# xmcd
# Track frame offsets:
# 150
# 25972
# 59962
# 85613
# 109875
# 134347
# 158779
# 181528
# 200834
# 230333
# 250299
# 274929
# 296794
#
# Disc length: 4425 seconds
# Revision: 0
# Processed by: cddbd v1.5.2PL0 Copyright (c) Steve Scherf et al.
# Submitted via: VisiTrax 2.11.3.279 - For more info visit www.synapsa.com
#
DISCID=c111470d
DTITLE=CD Pool - Remix July 2015
DYEAR=2015
DGENRE=House
TTITLE0=K-Klass ft. Bobbi Depasois - Let Me Show You (K-Klass 2015 Remix)
TTITLE1=Conchita Wurst - You Are Unstoppable (7th Heaven Club Mix)
TTITLE2=Jason Parker meets NaXwell ft. Carol Jiani - Hold That Sucker Down (Cl
TTITLE2=ub Mix)
TTITLE3=Krept and Konan ft. Jeremih - Freak Of The Week (Kat Krazy Extended Remi
TTITLE3=x)
TTITLE4=Ed Sheeran - Photograph (Felix Jaehn Remix)
TTITLE5=Rita Ora - Poison (David Zowie Remix)
TTITLE6=Conrad Sewell - Hold Me Up (Steve Smart Remix)
TTITLE7=James Silk - Talk Dirty (Tom Zanetti and Ko Kane Remix)
TTITLE8=Mans Zelmerlow - Heroes (7th Heaven Club Mix)
TTITLE9=Flo Rida ft. Robin Thicke and Verdine White - I Don't Like It, I Love I
TTITLE9=t (DiscoTech Remix)
TTITLE10=Olly Murs - Beautiful To Me (JRMX Club Mix)
TTITLE11=Lost Frequencies - Are You With Me (Dash Berlin Remix)
TTITLE12=Hazel Dean - Whatever I Do (Wherever I Go) (Sleazesisters Anthem Mix)
EXTD=
EXTT0=
EXTT1=
EXTT2=
EXTT3=
EXTT4=
EXTT5=
EXTT6=
EXTT7=
EXTT8=
EXTT9=
EXTT10=
EXTT11=
EXTT12=
PLAYORDER=
